<svg
xmlns="http://www.w3.org/2000/svg"
viewBox="0 0 128 128"
role="img"
aria-labelledby="title desc"
>
<title id="title">尤诺风格·新月图标</title>
<desc id="desc">
  简约的新月图标，冷蓝与银色渐变，辅以纤细光环与微小星点
</desc>

<defs>
  <!-- 背景：深夜渐变方块 -->
  <linearGradient id="bgG" x1="0" x2="1" y1="0" y2="1">
    <stop offset="0%" stop-color="#061426" />
    <stop offset="100%" stop-color="#020612" />
  </linearGradient>

  <!-- 新月主色：冷蓝到银白 -->
  <linearGradient id="moonG" x1="0" x2="1" y1="0" y2="1">
    <stop offset="0%" stop-color="#5fc3ff" />
    <stop offset="65%" stop-color="#dff8ff" />
    <stop offset="100%" stop-color="#f8feff" />
  </linearGradient>

  <!-- 纤细环渐变（冷蓝→金光细节点缀） -->
  <linearGradient id="ringG" x1="0" x2="1">
    <stop offset="0%" stop-color="#8fd9ff" />
    <stop offset="70%" stop-color="#cfeeff" />
    <stop offset="100%" stop-color="#ffd98a" />
  </linearGradient>

  <!-- 轻微投影 -->
  <filter id="ds" x="-50%" y="-50%" width="200%" height="200%">
    <feDropShadow
      dx="0"
      dy="6"
      stdDeviation="8"
      flood-color="#000"
      flood-opacity="0.5"
    />
  </filter>

  <!-- 小星形（复用）-->
  <symbol id="star" viewBox="0 0 10 10">
    <path
      d="M5 0.8 L6.1 3.1 L8.7 3.3 L6.3 4.9 L7 7.6 L5 6.2 L3 7.6 L3.7 4.9 L1.3 3.3 L3.9 3.1 Z"
      fill="currentColor"
    />
  </symbol>

  <!-- 用于做新月的遮罩（左半为实，右半被切掉） -->
  <mask id="crescentMask">
    <!-- 全白表示可见 -->
    <rect x="0" y="0" width="128" height="128" fill="white" />
    <!-- 右侧较大的黑色圆形遮去部分形成新月空隙 -->
    <circle cx="78" cy="52" r="28" fill="black" />
  </mask>
</defs>

<!-- 背景圆角块 -->
<rect
  width="128"
  height="128"
  rx="18"
  ry="18"
  fill="url(#bgG)"
/>

<!-- 软光环（顶部偏移，增加层次） -->
<ellipse
  cx="64"
  cy="18"
  rx="36"
  ry="9"
  fill="rgba(140,200,255,0.06)"
/>

<!-- 新月主体：使用渐变并套用遮罩 -->
<g filter="url(#ds)">
  <circle
    cx="56"
    cy="56"
    r="30"
    fill="url(#moonG)"
    mask="url(#crescentMask)"
  />
</g>

<!-- 细线光环：半环（用弧 path）-->
<path
  d="M32 40 A40 40 0 0 1 96 44"
  fill="none"
  stroke="url(#ringG)"
  stroke-width="2.2"
  stroke-linecap="round"
  stroke-linejoin="round"
  opacity="0.95"
/>

<!-- 更内侧的微细环（微偏移，制造层次） -->
<path
  d="M36 44 A34 34 0 0 1 92 48"
  fill="none"
  stroke="url(#ringG)"
  stroke-width="1.0"
  stroke-linecap="round"
  stroke-linejoin="round"
  opacity="0.65"
/>

<!-- 三个点缀星（不同大小与透明度） -->
<g fill="#fff8e8" opacity="0.95" transform="translate(0,-2)">
  <use
    href="#star"
    x="22"
    y="22"
    width="6"
    height="6"
    style="color: #dff8ff; opacity: 0.2"
  />
  <use
    href="#star"
    x="94"
    y="20"
    width="5"
    height="5"
    style="color: #ffd98a; opacity: 0.22"
  />
  <use
    href="#star"
    x="78"
    y="70"
    width="4"
    height="4"
    style="color: #e8fbff; opacity: 0.18"
  />
</g>

<!-- 底部轻投影（平衡构图） -->
<ellipse
  cx="64"
  cy="116"
  rx="28"
  ry="4.0"
  fill="rgba(0,0,0,0.28)"
/>
</svg>